<svg width="16" height="16" viewBox="0 0 16 16" fill="none" xmlns="http://www.w3.org/2000/svg">
<path d="M4.00007 5.5C4.00007 5.23478 4.10543 4.98043 4.29296 4.79289C4.4805 4.60536 4.73485 4.5 5.00007 4.5H11.0001C11.2653 4.5 11.5196 4.60536 11.7072 4.79289C11.8947 4.98043 12.0001 5.23478 12.0001 5.5V7C12.0001 7.26522 11.8947 7.51957 11.7072 7.70711C11.5196 7.89464 11.2653 8 11.0001 8H5.00007C4.73485 8 4.4805 7.89464 4.29296 7.70711C4.10543 7.51957 4.00007 7.26522 4.00007 7V5.5ZM11.0001 5.5H5.00007V7H11.0001V5.5ZM9.50007 9C9.23485 9 8.9805 9.10536 8.79296 9.29289C8.60543 9.48043 8.50007 9.73478 8.50007 10V11C8.50007 11.2652 8.60543 11.5196 8.79296 11.7071C8.9805 11.8946 9.23485 12 9.50007 12H11.0001C11.2653 12 11.5196 11.8946 11.7072 11.7071C11.8947 11.5196 12.0001 11.2652 12.0001 11V10C12.0001 9.73478 11.8947 9.48043 11.7072 9.29289C11.5196 9.10536 11.2653 9 11.0001 9H9.50007ZM9.50007 10H11.0001V11H9.50007V10ZM4.00007 9.5C4.00007 9.36739 4.05275 9.24021 4.14652 9.14645C4.24029 9.05268 4.36746 9 4.50007 9H7.00007C7.13268 9 7.25985 9.05268 7.35362 9.14645C7.44739 9.24021 7.50007 9.36739 7.50007 9.5C7.50007 9.63261 7.44739 9.75979 7.35362 9.85355C7.25985 9.94732 7.13268 10 7.00007 10H4.50007C4.36746 10 4.24029 9.94732 4.14652 9.85355C4.05275 9.75979 4.00007 9.63261 4.00007 9.5ZM4.50007 11C4.36746 11 4.24029 11.0527 4.14652 11.1464C4.05275 11.2402 4.00007 11.3674 4.00007 11.5C4.00007 11.6326 4.05275 11.7598 4.14652 11.8536C4.24029 11.9473 4.36746 12 4.50007 12H7.00007C7.13268 12 7.25985 11.9473 7.35362 11.8536C7.44739 11.7598 7.50007 11.6326 7.50007 11.5C7.50007 11.3674 7.44739 11.2402 7.35362 11.1464C7.25985 11.0527 7.13268 11 7.00007 11H4.50007ZM4.49707 2C3.83403 2 3.19814 2.26339 2.7293 2.73223C2.26046 3.20107 1.99707 3.83696 1.99707 4.5V11.5C1.99707 12.163 2.26046 12.7989 2.7293 13.2678C3.19814 13.7366 3.83403 14 4.49707 14H11.4971C11.8254 14 12.1505 13.9353 12.4538 13.8097C12.7571 13.6841 13.0327 13.4999 13.2648 13.2678C13.497 13.0356 13.6811 12.76 13.8068 12.4567C13.9324 12.1534 13.9971 11.8283 13.9971 11.5V4.5C13.9971 4.1717 13.9324 3.84661 13.8068 3.54329C13.6811 3.23998 13.497 2.96438 13.2648 2.73223C13.0327 2.50009 12.7571 2.31594 12.4538 2.1903C12.1505 2.06466 11.8254 2 11.4971 2H4.49707ZM2.99707 4.5C2.99707 4.10218 3.15511 3.72064 3.43641 3.43934C3.71771 3.15804 4.09925 3 4.49707 3H11.4971C11.8949 3 12.2764 3.15804 12.5577 3.43934C12.839 3.72064 12.9971 4.10218 12.9971 4.5V11.5C12.9971 11.8978 12.839 12.2794 12.5577 12.5607C12.2764 12.842 11.8949 13 11.4971 13H4.49707C4.09925 13 3.71771 12.842 3.43641 12.5607C3.15511 12.2794 2.99707 11.8978 2.99707 11.5V4.5Z" fill="#667085"/>
</svg>
