<svg width="16" height="18" viewBox="0 0 16 18" fill="none" xmlns="http://www.w3.org/2000/svg">
<path d="M13.9062 2.25H10.8125V1.6875C10.8125 0.755508 10.057 0 9.125 0H6.875C5.94301 0 5.1875 0.755508 5.1875 1.6875V2.25H2.09375C1.31711 2.25 0.6875 2.87961 0.6875 3.65625V4.78125C0.6875 5.09193 0.939324 5.34375 1.25 5.34375H14.75C15.0607 5.34375 15.3125 5.09193 15.3125 4.78125V3.65625C15.3125 2.87961 14.6829 2.25 13.9062 2.25ZM6.3125 1.6875C6.3125 1.37742 6.56492 1.125 6.875 1.125H9.125C9.43508 1.125 9.6875 1.37742 9.6875 1.6875V2.25H6.3125V1.6875Z" fill="#F04438"/>
<path d="M1.7539 6.46875C1.65353 6.46875 1.57355 6.55263 1.57833 6.6529L2.04239 16.3927C2.08528 17.2941 2.82567 18 3.72778 18H12.27C13.1722 18 13.9125 17.2941 13.9554 16.3927L14.4195 6.6529C14.4243 6.55263 14.3443 6.46875 14.2439 6.46875H1.7539ZM10.2489 7.875C10.2489 7.56422 10.5006 7.3125 10.8114 7.3125C11.1222 7.3125 11.3739 7.56422 11.3739 7.875V15.1875C11.3739 15.4983 11.1222 15.75 10.8114 15.75C10.5006 15.75 10.2489 15.4983 10.2489 15.1875V7.875ZM7.43641 7.875C7.43641 7.56422 7.68813 7.3125 7.99891 7.3125C8.3097 7.3125 8.56141 7.56422 8.56141 7.875V15.1875C8.56141 15.4983 8.3097 15.75 7.99891 15.75C7.68813 15.75 7.43641 15.4983 7.43641 15.1875V7.875ZM4.62391 7.875C4.62391 7.56422 4.87563 7.3125 5.18641 7.3125C5.4972 7.3125 5.74891 7.56422 5.74891 7.875V15.1875C5.74891 15.4983 5.4972 15.75 5.18641 15.75C4.87563 15.75 4.62391 15.4983 4.62391 15.1875V7.875Z" fill="#F04438"/>
</svg>
