<svg id="Layer_1" data-name="Layer 1" xmlns="http://www.w3.org/2000/svg" viewBox="0 0 800 800"><defs><style>.cls-1{fill:#060248;}.cls-2{fill:#ef4b0c;}.cls-3{fill:#fd8500;}.cls-4{fill:#fff;}.cls-5{fill:#543ec6;}</style></defs><title>Artboard 1</title><path class="cls-1" d="M728.76,540.86C651,722.42,440.71,806.55,259.15,728.75L308.31,614c118.2,50.65,255-4.12,305.68-122.3s-4.12-255-122.3-305.66L540.85,71.25C722.43,149.05,806.56,359.28,728.76,540.86Z"/><path class="cls-2" d="M540.85,71.25,491.69,186c-118.2-50.65-255,4.12-305.68,122.3s4.12,255,122.3,305.66L259.15,728.75C77.57,651-6.56,440.72,71.24,259.14S359.29-6.55,540.85,71.25Z"/><path class="cls-3" d="M491.69,186,444.6,295.92h0A113.23,113.23,0,0,0,355.4,504.08L308.31,614C190.13,563.34,135.38,426.5,186,308.32S373.49,135.37,491.69,186Z"/><path class="cls-4" d="M444.58,295.92,355.42,504.08h0a113.23,113.23,0,0,1,89.18-208.16Z"/><path class="cls-5" d="M614,491.68c-50.64,118.18-187.48,173-305.68,122.3l47.09-109.9h0A113.23,113.23,0,0,0,444.6,295.92L491.69,186C609.87,236.66,664.62,373.5,614,491.68Z"/><path class="cls-1" d="M504.07,444.59a113.23,113.23,0,0,1-148.65,59.49l89.16-208.16h0A113.24,113.24,0,0,1,504.07,444.59Z"/></svg>